<svg xmlns="http://www.w3.org/2000/svg" fill="none" viewBox="0 0 512 512">
    <polygon points="256,32 449.9896904477,144 449.9896904477,368 256,480 62.0103095523,368 62.0103095523 144" fill="white" stroke="black" />
    <line x1="449.9896904477" y1="144" x2="256" y2="256" stroke="black"/>
    <line x1="256" y1="480" x2="256" y2="256" stroke="black"/>
    <line x1="62.0103095523" y1="144" x2="256" y2="256" stroke="black"/>
    <circle cx="256" cy="32" r="24" fill="red" stroke="black" />
    <circle cx="449.9896904477" cy="144" r="24" fill="yellow" stroke="black" />
    <circle cx="449.9896904477" cy="368" r="24" fill="lime" stroke="black" />
    <circle cx="256" cy="480" r="24" fill="cyan" stroke="black" />
    <circle cx="62.0103095523" cy="368" r="24" fill="blue" stroke="black" />
    <circle cx="62.0103095523" cy="144" r="24" fill="magenta" stroke="black" />
    <circle cx="256" cy="256" r="24" fill="white" stroke="black" />
    <polygon points="256.000000000000,56.0000000000000 408.420471066061,144.000000000000 256.000000000000,232.000000000000 103.579528933939,144.000000000000" fill="lime" stroke="black" />
    <polygon points="429.205080756888,356.000000000000 429.205080756888,180.000000000000 276.784609690827,268.000000000000 276.784609690827,444.000000000000" fill="lime" stroke="black" />
    <polygon points="82.7949192431123,356.000000000000 82.7949192431123,180.000000000000 235.215390309173,268.000000000000 235.215390309173,444.000000000000" fill="lime" stroke="black" />
</svg>
